<svg id="Warstwa_1" data-name="Warstwa 1" xmlns="http://www.w3.org/2000/svg" viewBox="0 0 372.5 136.71"><title>logo</title><path id="path21822" d="M386.1,23.17c16.5,6,22.8,15.3,22.4,24-2.3,46.9-48.3,90.9-162,89.5-106.2-1.3-197.3-33-197.3-66.2s84.5-49.7,183.7-56.9c66.7-4.7,123.4-1.2,153.2,9.6h0Z" transform="translate(-40 0)" style="fill:#e2021a"/><path id="path21824" d="M114.6,97.57l-11.4-56.3H116l5.9,32.1,7.2-32.1H141l5.9,33,7.1-33h12.4l-14.1,56.2-11.8-.1-6.3-30.5-7.8,30.9-11.8-.2h0Z" transform="translate(-40 0)" style="fill:#ffec00"/><path id="path21826" d="M185.2,41.27l-9.1,55.9H163.5l9.3-55.9h12.4Z" transform="translate(-40 0)" style="fill:#ffec00"/><path id="path21828" d="M185.1,97.07l9.1-55.9,11.3,0.1L221.1,76l5.7-34.6h11.1L229,97.07H217.8l-15.7-34.8-5.6,34.8H185.1Z" transform="translate(-40 0)" style="fill:#ffec00"/><path id="path21830" d="M260.4,41.07L251.1,97l-12.2-.1,9-55.8h12.5Z" transform="translate(-40 0)" style="fill:#ffec00"/><path id="path21832" d="M272.1,86.57l-3.9,10.2H255.9l22.8-55.6h16.7l6.7,55.6H289.9l-0.8-10.2h-17Zm16.2-10.9L286,49.77l-9.8,25.8,12.1,0.1h0Z" transform="translate(-40 0)" style="fill:#ffec00"/><path id="path21834" d="M313.9,41.17s18.8-.6,23.4,1c5.8,2,8.8,6.4,8.9,11.6,0.5,17.8-8.4,18.5-14.7,20.8l11.3,22.1H328.5l-7.9-20.9-3.5,21H304.9l9-55.6h0Zm8.1,25.7s11.4,0.1,11.9-8.5c0.2-3.2-1-5.4-2.8-6.2-2.2-1-6.6-.4-6.6-0.4Z" transform="translate(-40 0)" style="fill:#ffec00"/><path id="path21836" d="M226.4,126.77c-34.2-2-69.4-5.9-93.8-12.6-41.9-11.6-62-27.5-62-27.5s43.1,27,134.5,32.6c81.4,5,120.5-8.4,124.9-10.3,9.5-4.1,28.1-15,27.9-24.9-0.2-13.3-7.1-42.8-7.1-42.8h13.6l3.1,26.3,12-26.3h13.6S377.2,73,371.2,84.07c-11.8,20.8-37.8,49-144.8,42.7h0Z" transform="translate(-40 0)" style="fill:#ffec00"/><path id="path21838" d="M47.6,59.87C47.6,28.17,147,5,254.2,3.27c37.4-.6,55.3.7,55.3,0.7S274,1,260.5.47C140-3.93,40,23.07,40,50.47c0,4.8,2.9,9.5,8.2,13.9A23.16,23.16,0,0,1,47.6,59.87Z" transform="translate(-40 0)" style="fill:#e2021a"/><g id="g21840"><path id="path21842" d="M407.3,98.67l-1.8-3.5h-1v3.5h-1.4v-7.6h3.4c1.6,0,2.2.6,2.1,2a1.71,1.71,0,0,1-1.9,2l1.9,3.5-1.3.1h0Zm-1.1-6.3h-1.7v1.7h1.7c0.8,0,1.2-.2,1.2-0.8,0-.8-0.4-0.9-1.2-0.9h0Z" transform="translate(-40 0)" style="fill:#e20819"/></g><g id="g21844"><path id="path21846" d="M411.3,95a5.6,5.6,0,1,1-5.6-5.6A5.47,5.47,0,0,1,411.3,95Zm-5.6-6.9a6.8,6.8,0,1,0,6.8,6.8,6.81,6.81,0,0,0-6.8-6.8h0Z" transform="translate(-40 0)" style="fill:#e20819"/></g></svg>